<?xml version="1.0" standalone="no"?>
<!DOCTYPE svg PUBLIC "-//W3C//DTD SVG 20010904//EN"
 "http://www.w3.org/TR/2001/REC-SVG-20010904/DTD/svg10.dtd">
<svg version="1.0" xmlns="http://www.w3.org/2000/svg"
 width="512.000000pt" height="512.000000pt" viewBox="0 0 512.000000 512.000000"
 preserveAspectRatio="xMidYMid meet">
<metadata>
Created by potrace 1.11, written by Peter Selinger 2001-2013
</metadata>
<g transform="translate(0.000000,512.000000) scale(0.100000,-0.100000)"
fill="#000000" stroke="none">
<path d="M1365 3841 c-94 -27 -113 -137 -35 -198 41 -33 139 -3 155 47 6 19
16 20 353 19 302 -1 342 -3 305 -14 -75 -24 -214 -94 -302 -152 -156 -105
-330 -302 -413 -468 -57 -114 -118 -317 -118 -392 0 -31 -2 -33 -37 -34 -21
-1 -41 -1 -45 0 -5 0 -8 -49 -8 -109 l0 -110 108 0 109 0 -1 110 c0 105 -1
111 -21 109 -53 -4 -56 -1 -50 39 47 291 191 555 394 723 29 24 59 49 65 54
21 19 121 81 181 112 83 43 218 89 315 107 120 23 130 22 130 -14 0 -33 -8
-31 123 -32 83 -1 92 2 92 35 0 19 6 22 40 21 98 -1 242 -41 381 -105 236
-110 454 -326 564 -562 43 -92 87 -233 99 -319 8 -62 6 -64 -51 -59 -16 2 -18
-9 -18 -108 l0 -111 104 0 c120 0 112 -10 111 125 0 98 5 91 -62 94 -22 1 -21
-1 -39 116 -23 144 -113 348 -215 485 -150 202 -322 331 -574 431 l-70 28 338
1 338 0 38 -40 c32 -33 44 -40 77 -40 122 0 152 157 40 205 -40 17 -84 3 -121
-38 l-30 -34 -470 0 c-273 0 -473 4 -476 9 -3 5 -5 25 -3 44 l2 34 -109 0
-109 0 0 -43 0 -44 -480 0 c-445 0 -480 1 -485 17 -13 39 -78 73 -120 61z"/>
<path d="M2610 2928 l1 -423 39 -24 c96 -59 94 -205 -3 -269 -115 -76 -270 17
-254 154 5 50 46 110 83 124 13 5 25 17 25 27 4 57 3 823 -1 823 -13 0 -371
-746 -459 -955 -62 -146 -61 -168 9 -203 26 -12 42 -32 63 -75 32 -67 72 -230
82 -341 l7 -76 -78 0 -79 0 0 -199 c0 -110 4 -203 8 -207 5 -5 870 -10 995 -5
l22 1 0 205 0 205 -80 0 -79 0 4 33 c3 17 7 53 10 78 6 49 7 58 24 134 30 134
90 255 125 255 31 0 48 32 43 75 -8 54 -108 279 -314 705 -47 96 -107 221
-135 278 -27 56 -51 102 -54 102 -2 0 -4 -190 -4 -422z"/>
</g>
</svg>
